<?xml version="1.0" encoding="UTF-8" standalone="no"?>
<!DOCTYPE svg PUBLIC "-//W3C//DTD SVG 1.1//EN" "http://www.w3.org/Graphics/SVG/1.1/DTD/svg11.dtd">
<svg width="100%" height="100%" viewBox="0 0 1920 1080" version="1.1" xmlns="http://www.w3.org/2000/svg" xmlns:xlink="http://www.w3.org/1999/xlink" xml:space="preserve" xmlns:serif="http://www.serif.com/" style="fill-rule:evenodd;clip-rule:evenodd;stroke-linejoin:round;stroke-miterlimit:2;">
    <g transform="matrix(1.17599,0,0,1.17599,-169.01,-129.977)">
        <g transform="matrix(645.238,0,0,645.238,399.985,767.157)">
            <path d="M0.586,-0.312C0.586,-0.307 0.585,-0.302 0.583,-0.297C0.58,-0.292 0.577,-0.288 0.573,-0.285C0.568,-0.281 0.559,-0.278 0.544,-0.275C0.529,-0.272 0.519,-0.27 0.514,-0.269C0.519,-0.244 0.522,-0.231 0.522,-0.232C0.527,-0.215 0.532,-0.192 0.537,-0.163C0.549,-0.096 0.561,-0.038 0.574,0.009C0.577,0.024 0.579,0.033 0.579,0.036C0.579,0.043 0.576,0.048 0.571,0.053C0.566,0.058 0.559,0.06 0.552,0.06C0.545,0.06 0.539,0.056 0.534,0.049C0.529,0.042 0.525,0.036 0.523,0.031C0.517,0.008 0.511,-0.017 0.506,-0.045C0.501,-0.073 0.496,-0.107 0.489,-0.146C0.486,-0.163 0.482,-0.185 0.476,-0.211C0.47,-0.236 0.466,-0.253 0.464,-0.261C0.425,-0.256 0.357,-0.245 0.261,-0.229L0.203,-0.219L0.182,-0.16L0.154,-0.08C0.131,-0.007 0.114,0.049 0.104,0.088C0.102,0.097 0.098,0.105 0.092,0.111C0.086,0.118 0.079,0.121 0.07,0.121C0.063,0.121 0.057,0.119 0.051,0.115C0.047,0.111 0.044,0.105 0.044,0.098C0.044,0.091 0.048,0.075 0.056,0.051C0.064,0.028 0.069,0.014 0.07,0.009C0.073,0.002 0.078,-0.013 0.086,-0.037C0.095,-0.063 0.106,-0.095 0.119,-0.132C0.133,-0.169 0.142,-0.193 0.147,-0.205C0.113,-0.197 0.088,-0.191 0.071,-0.186C0.046,-0.179 0.03,-0.176 0.024,-0.176C0.017,-0.176 0.011,-0.179 0.008,-0.185C0.004,-0.19 0.002,-0.196 0.002,-0.203C0.002,-0.211 0.004,-0.217 0.008,-0.22C0.012,-0.223 0.019,-0.225 0.028,-0.228C0.053,-0.234 0.08,-0.24 0.109,-0.246C0.137,-0.252 0.156,-0.256 0.167,-0.258C0.174,-0.277 0.179,-0.294 0.182,-0.307C0.185,-0.316 0.188,-0.327 0.193,-0.34C0.197,-0.353 0.202,-0.369 0.207,-0.388L0.222,-0.439C0.247,-0.528 0.262,-0.579 0.266,-0.592C0.269,-0.601 0.273,-0.609 0.276,-0.614C0.279,-0.619 0.283,-0.622 0.288,-0.622C0.301,-0.622 0.313,-0.62 0.324,-0.616C0.325,-0.617 0.328,-0.62 0.331,-0.625C0.334,-0.629 0.337,-0.632 0.341,-0.633C0.344,-0.635 0.349,-0.636 0.355,-0.636C0.367,-0.636 0.381,-0.622 0.397,-0.595C0.412,-0.568 0.427,-0.535 0.442,-0.498C0.451,-0.476 0.462,-0.443 0.475,-0.4C0.488,-0.356 0.497,-0.327 0.501,-0.313C0.511,-0.314 0.52,-0.316 0.527,-0.319C0.534,-0.321 0.538,-0.322 0.54,-0.323C0.543,-0.324 0.547,-0.327 0.551,-0.33C0.555,-0.333 0.559,-0.336 0.562,-0.338C0.565,-0.339 0.569,-0.339 0.573,-0.337C0.582,-0.333 0.586,-0.325 0.586,-0.312ZM0.455,-0.305C0.452,-0.317 0.445,-0.342 0.434,-0.381C0.423,-0.419 0.413,-0.45 0.404,-0.474C0.395,-0.499 0.383,-0.524 0.368,-0.55C0.353,-0.576 0.341,-0.592 0.331,-0.599L0.32,-0.573C0.307,-0.548 0.298,-0.525 0.291,-0.504C0.275,-0.456 0.25,-0.377 0.215,-0.266L0.332,-0.286L0.428,-0.301L0.455,-0.305Z" style="fill:none;fill-rule:nonzero;stroke:black;stroke-width:0.07px;"/>
        </g>
        <g transform="matrix(645.238,0,0,645.238,801.323,767.157)">
            <path d="M0.394,-0.421C0.394,-0.415 0.39,-0.408 0.382,-0.401C0.373,-0.393 0.366,-0.389 0.36,-0.389C0.355,-0.389 0.351,-0.391 0.346,-0.395C0.342,-0.399 0.337,-0.405 0.332,-0.412C0.327,-0.419 0.321,-0.424 0.314,-0.429C0.306,-0.434 0.298,-0.436 0.29,-0.436C0.271,-0.436 0.245,-0.41 0.212,-0.36C0.179,-0.309 0.147,-0.244 0.116,-0.167C0.117,-0.152 0.118,-0.132 0.119,-0.109C0.121,-0.086 0.122,-0.068 0.123,-0.057L0.126,-0.017C0.126,-0.008 0.124,0 0.12,0.007C0.116,0.014 0.109,0.018 0.098,0.018C0.087,0.018 0.079,0.003 0.076,-0.028C0.073,-0.058 0.071,-0.102 0.07,-0.16C0.069,-0.175 0.069,-0.196 0.069,-0.223C0.068,-0.25 0.067,-0.283 0.066,-0.321C0.064,-0.378 0.063,-0.419 0.063,-0.444C0.063,-0.459 0.072,-0.467 0.091,-0.467C0.102,-0.467 0.109,-0.462 0.112,-0.453C0.114,-0.443 0.115,-0.424 0.115,-0.397L0.115,-0.238C0.135,-0.289 0.157,-0.334 0.18,-0.371C0.203,-0.408 0.226,-0.437 0.249,-0.457C0.271,-0.476 0.291,-0.486 0.308,-0.486C0.323,-0.486 0.337,-0.483 0.35,-0.476C0.363,-0.469 0.374,-0.461 0.382,-0.451C0.39,-0.44 0.394,-0.43 0.394,-0.421Z" style="fill:none;fill-rule:nonzero;stroke:black;stroke-width:0.07px;"/>
        </g>
        <g transform="matrix(645.238,0,0,645.238,1068.45,767.157)">
            <path d="M0.117,-0.626C0.117,-0.616 0.106,-0.611 0.084,-0.611C0.073,-0.611 0.061,-0.616 0.05,-0.625C0.038,-0.634 0.032,-0.642 0.032,-0.648C0.032,-0.655 0.035,-0.662 0.043,-0.669C0.05,-0.676 0.057,-0.679 0.064,-0.679C0.064,-0.679 0.067,-0.678 0.071,-0.677C0.077,-0.675 0.082,-0.67 0.089,-0.663C0.094,-0.658 0.1,-0.651 0.107,-0.642C0.114,-0.633 0.117,-0.628 0.117,-0.626ZM0.142,0.003C0.142,0.01 0.139,0.015 0.134,0.018C0.128,0.022 0.121,0.024 0.114,0.023C0.105,0.022 0.098,0.007 0.094,-0.022C0.089,-0.051 0.085,-0.107 0.08,-0.189C0.077,-0.243 0.075,-0.296 0.073,-0.347C0.071,-0.399 0.07,-0.439 0.069,-0.467C0.069,-0.474 0.07,-0.48 0.073,-0.484C0.075,-0.487 0.079,-0.489 0.086,-0.489C0.101,-0.489 0.111,-0.483 0.115,-0.47C0.119,-0.457 0.121,-0.433 0.121,-0.397L0.12,-0.279C0.12,-0.212 0.122,-0.158 0.126,-0.117C0.126,-0.115 0.129,-0.094 0.135,-0.053C0.14,-0.025 0.142,-0.006 0.142,0.003Z" style="fill:none;fill-rule:nonzero;stroke:black;stroke-width:0.07px;"/>
        </g>
        <g transform="matrix(645.238,0,0,645.238,1209.11,767.157)">
            <path d="M0.48,-0.387C0.48,-0.33 0.457,-0.269 0.412,-0.202C0.367,-0.135 0.309,-0.075 0.239,-0.024C0.21,-0.002 0.188,0.009 0.173,0.009C0.166,0.009 0.16,0.006 0.155,0.001C0.15,-0.004 0.148,-0.011 0.148,-0.018C0.148,-0.025 0.151,-0.033 0.158,-0.04C0.164,-0.047 0.173,-0.054 0.186,-0.059C0.232,-0.079 0.274,-0.108 0.312,-0.146C0.35,-0.183 0.38,-0.223 0.401,-0.265C0.422,-0.307 0.433,-0.344 0.433,-0.376C0.433,-0.389 0.43,-0.398 0.425,-0.405C0.419,-0.411 0.41,-0.414 0.397,-0.414C0.369,-0.414 0.34,-0.403 0.311,-0.38C0.282,-0.357 0.254,-0.328 0.229,-0.291C0.21,-0.263 0.191,-0.229 0.173,-0.19C0.155,-0.151 0.141,-0.109 0.132,-0.065C0.127,-0.042 0.115,-0.03 0.098,-0.03C0.093,-0.03 0.088,-0.034 0.083,-0.043C0.078,-0.051 0.075,-0.058 0.075,-0.065C0.075,-0.142 0.072,-0.256 0.067,-0.406C0.062,-0.556 0.058,-0.642 0.056,-0.663C0.056,-0.667 0.056,-0.671 0.055,-0.675C0.054,-0.678 0.054,-0.682 0.053,-0.685C0.052,-0.689 0.052,-0.693 0.051,-0.698C0.05,-0.702 0.05,-0.706 0.05,-0.71C0.05,-0.725 0.057,-0.733 0.071,-0.733C0.082,-0.733 0.092,-0.726 0.099,-0.712C0.106,-0.697 0.109,-0.681 0.109,-0.663L0.109,-0.61C0.109,-0.451 0.111,-0.329 0.116,-0.244C0.119,-0.202 0.121,-0.179 0.124,-0.174C0.131,-0.196 0.143,-0.221 0.159,-0.248C0.174,-0.275 0.191,-0.301 0.208,-0.324C0.239,-0.367 0.273,-0.401 0.31,-0.427C0.347,-0.452 0.38,-0.465 0.41,-0.465C0.431,-0.465 0.448,-0.458 0.461,-0.445C0.473,-0.432 0.48,-0.412 0.48,-0.387Z" style="fill:none;fill-rule:nonzero;stroke:black;stroke-width:0.08px;"/>
        </g>
    </g>
</svg>
